<svg width="22" height="22" viewBox="0 0 22 22" fill="none" xmlns="http://www.w3.org/2000/svg">
<path d="M20.68 11.2292C20.68 10.5142 20.6158 9.82675 20.4967 9.16675H11V13.0717H16.4267C16.1883 14.3276 15.4733 15.3909 14.4008 16.1059V18.6451H17.6733C19.58 16.8851 20.68 14.3001 20.68 11.2292Z" fill="#4285F4"/>
<path d="M11.0002 21.0834C13.7227 21.0834 16.0052 20.185 17.6735 18.645L14.401 16.1059C13.5027 16.7109 12.3569 17.0775 11.0002 17.0775C8.37854 17.0775 6.15104 15.3084 5.35354 12.925H1.99854V15.5284C3.6577 18.8192 7.05853 21.0834 11.0002 21.0834Z" fill="#34A853"/>
<path d="M5.35317 12.9157C5.1515 12.3107 5.03234 11.669 5.03234 10.9999C5.03234 10.3307 5.1515 9.68905 5.35317 9.08405V6.48071H1.99817C1.31067 7.83738 0.916504 9.36821 0.916504 10.9999C0.916504 12.6315 1.31067 14.1624 1.99817 15.519L4.61067 13.484L5.35317 12.9157Z" fill="#FBBC05"/>
<path d="M11.0002 4.93175C12.4852 4.93175 13.8052 5.44508 14.8594 6.43508L17.7469 3.54758C15.996 1.91591 13.7227 0.916748 11.0002 0.916748C7.05853 0.916748 3.6577 3.18091 1.99854 6.48091L5.35354 9.08425C6.15104 6.70091 8.37854 4.93175 11.0002 4.93175Z" fill="#EA4335"/>
</svg>
