<svg width="22" height="22" viewBox="0 0 22 22" fill="none" xmlns="http://www.w3.org/2000/svg">
<g clip-path="url(#clip0_238_2585)">
<path d="M9.21423 15.5003L6.17238 19.2045C5.7444 19.7257 5.94887 20.5127 6.57638 20.7597L9.55026 21.9302C10.1918 22.1827 10.8892 21.721 10.9074 21.0318L11.0357 16.1797C11.0615 15.2015 9.83518 14.7442 9.21423 15.5003Z" fill="#DC0000"/>
<path d="M8.70892 11.8178L4.19773 10.1981C3.563 9.97024 2.89049 10.4274 2.86883 11.1014L2.76616 14.2957C2.74399 14.9848 3.41321 15.4865 4.06845 15.2719L8.68134 13.7616C9.61125 13.4572 9.62978 12.1484 8.70892 11.8178Z" fill="#DC0000"/>
<path d="M13.8791 12.3376L18.4999 11.064C19.1501 10.8849 19.4366 10.1239 19.0662 9.56031L17.3108 6.88973C16.9321 6.31363 16.096 6.28884 15.6839 6.84156L12.7823 10.7327C12.1974 11.517 12.9359 12.5977 13.8791 12.3376Z" fill="#DC0000"/>
<path d="M10.5328 1.23374C10.5696 0.434534 9.81649 -0.168382 9.04465 0.0424038L5.38706 1.04129C4.598 1.25677 4.26288 2.19071 4.7349 2.85872L8.93224 10.1306C8.96633 10.1896 9.0039 10.2468 9.04808 10.2988C9.66969 11.0293 10.8366 10.7586 11.1243 9.90348C11.1759 9.74986 11.1905 9.58614 11.1778 9.42454L10.5328 1.23374Z" fill="#DC0000"/>
<path d="M18.5313 15.6618L13.8912 14.2371C12.9559 13.9499 12.1864 15.0087 12.7483 15.8096L15.5011 19.7335C15.8884 20.2855 16.7015 20.2996 17.1077 19.7613L19.0327 17.2103C19.448 16.6599 19.1903 15.8642 18.5313 15.6618Z" fill="#DC0000"/>
</g>
<defs>
<clipPath id="clip0_238_2585">
<rect width="22" height="22" fill="white"/>
</clipPath>
</defs>
</svg>
