<svg width="22" height="22" viewBox="0 0 22 22" fill="none" xmlns="http://www.w3.org/2000/svg">
<path d="M21 11C21 5.47715 16.5229 1 11 1C5.47715 1 1 5.47715 1 11C1 15.9913 4.65685 20.1283 9.4375 20.8785V13.8906H6.89844V11H9.4375V8.79688C9.4375 6.29062 10.9304 4.90626 13.2146 4.90626C14.3087 4.90626 15.4531 5.10156 15.4531 5.10156V7.5625H14.1922C12.9499 7.5625 12.5625 8.33335 12.5625 9.12417V11H15.3359L14.8926 13.8906H12.5625V20.8785C17.3432 20.1283 21 15.9913 21 11Z" fill="#1877F2"/>
<path d="M14.8926 13.8906L15.3359 11H12.5625V9.12415C12.5625 8.33334 12.9499 7.5625 14.1921 7.5625H15.4531V5.10156C15.4531 5.10156 14.3087 4.90625 13.2146 4.90625C10.9304 4.90625 9.4375 6.29062 9.4375 8.79688V11H6.89844V13.8906H9.4375V20.8785C9.95439 20.9595 10.4768 21.0001 11 21C11.5316 21 12.0534 20.9584 12.5625 20.8785V13.8906H14.8926Z" fill="white"/>
</svg>
